<?xml version="1.0" encoding="utf-8"?>
<!-- 앱 UI·파비콘용 정사각 크롭본. 원본 archiMap.svg는 A4 아트보드라 여백이 커서 <img>로 못 쓴다.
     ⚠️좌표·색은 원본과 한 글자도 다르지 않다 — viewBox만 도형 경계(300×300)로 좁혔다. -->
<svg xmlns="http://www.w3.org/2000/svg" viewBox="131.81 245.14 300 300">
	<polygon fill="#8A8F86" points="431.81,446.79 413.67,468.15 431.81,483.55 	"/>
	<polygon fill="#F2C0A0" points="348.32,545.14 431.81,545.14 431.81,528.17 391.66,494.08 	"/>
	<polygon fill="#A8C0A0" points="155.89,453.41 263.94,545.14 303.7,545.14 365.73,472.07 234.57,360.73 	"/>
	<polygon fill="#8A8F86" points="216.95,527.55 202.01,545.14 237.66,545.14 	"/>
	<polygon fill="#BDB2E3" points="131.81,481.77 131.81,545.14 179.71,545.14 203.98,516.54 144.89,466.38 	"/>
	<polygon fill="#8A8F86" points="131.81,429.22 149.86,407.95 131.81,392.63 	"/>
	<polygon fill="#A9C7E8" points="131.81,370.32 160.87,394.99 208.64,338.71 131.81,273.49 	"/>
	<polygon fill="#F0DBA0" points="163.94,256.14 277.78,352.79 354.03,262.96 333.04,245.14 173.28,245.14 	"/>
	<polygon fill="#E9B4B8" points="431.81,245.14 391.47,245.14 290.74,363.79 387.74,446.14 431.81,394.23 	"/>
</svg>
