<svg xmlns="http://www.w3.org/2000/svg" width="26.916" height="26.916" viewBox="0 0 26.916 26.916"><rect width="26.916" height="26.916" fill="none"/><polygon points="3.553 3.741 3.553 23.428 23.634 23.428 23.634 3.741 13.594 3.741 3.553 3.741" fill="none" stroke="#231815" stroke-miterlimit="10" stroke-width="3"/><polyline points="13.594 3.741 13.594 12.066 13.594 23.428" fill="#fff" stroke="#231815" stroke-miterlimit="10" stroke-width="3"/><line x1="23.634" y1="7.753" x2="13.594" y2="15.141" fill="#fff" stroke="#231815" stroke-miterlimit="10" stroke-width="3"/><line x1="3.553" y1="10.322" x2="13.594" y2="10.322" fill="#fff" stroke="#231815" stroke-miterlimit="10" stroke-width="3"/><line x1="13.594" y1="18.197" x2="23.634" y2="18.197" fill="#fff" stroke="#231815" stroke-miterlimit="10" stroke-width="3"/><polygon points="3.553 3.741 3.553 23.428 23.634 23.428 23.634 3.741 13.594 3.741 3.553 3.741" fill="none" stroke="#fff" stroke-miterlimit="10" stroke-width="0.5"/><polyline points="13.594 3.741 13.594 12.066 13.594 23.428" fill="#fff" stroke="#fff" stroke-miterlimit="10" stroke-width="0.5"/><line x1="23.634" y1="7.753" x2="13.594" y2="15.141" fill="#fff" stroke="#fff" stroke-miterlimit="10" stroke-width="0.5"/><line x1="3.553" y1="10.322" x2="13.594" y2="10.322" fill="#fff" stroke="#fff" stroke-miterlimit="10" stroke-width="0.5"/><line x1="13.594" y1="18.197" x2="23.634" y2="18.197" fill="#fff" stroke="#fff" stroke-miterlimit="10" stroke-width="0.5"/></svg>