<svg xmlns="http://www.w3.org/2000/svg" width="24.637" height="24.637" viewBox="0 0 24.637 24.637"><rect width="24.637" height="24.637" fill="none"/><path d="M27.4,15.669v-3.89l-6.294,6.006L27.4,23.774V17.4H25.018V15.669Zm-1.555,3.244V20.3h-.83V18.913Z" transform="translate(-3.681 -5.467)" fill="#e1c8b4"/><path d="M21.109,17.785l-7.675-7.3L4.6,17.785l8.861,7.3L14.912,23.7V17.481h2.075V21.72Zm-10.748.3a.864.864,0,1,1,.865-.864A.864.864,0,0,1,10.361,18.087Z" transform="translate(-3.681 -5.467)" fill="#e1c8b4"/><rect x="21.337" y="13.446" width="0.83" height="1.383" fill="none" stroke="#d08b27" stroke-miterlimit="10" stroke-width="0.75"/><circle cx="6.68" cy="11.756" r="0.864" fill="none" stroke="#d08b27" stroke-miterlimit="10" stroke-width="0.75"/><polygon points="11.231 12.014 13.306 12.014 13.306 16.253 17.428 12.319 9.753 5.016 0.916 12.319 9.777 19.621 11.231 18.233 11.231 12.014" fill="none" stroke="#a68169" stroke-miterlimit="10" stroke-width="0.75"/><polygon points="21.337 11.931 21.337 10.202 23.721 10.202 23.721 6.312 17.428 12.319 23.721 18.307 23.721 11.931 21.337 11.931" fill="none" stroke="#a68169" stroke-miterlimit="10" stroke-width="0.75"/></svg>