<svg xmlns="http://www.w3.org/2000/svg" width="24.637" height="24.637" viewBox="0 0 24.637 24.637"><rect width="24.637" height="24.637" fill="none"/><path d="M23.305,20.835a9.193,9.193,0,0,1-4.2,4.079L6.8,21.345,4.51,23.323v.027l14.566,4.2H19.1l8.387-7.263v-.047l-3.6-1.039A17.18,17.18,0,0,1,23.305,20.835Z" transform="translate(-3.681 -5.467)" stroke="#000" stroke-linecap="round" stroke-linejoin="round"/><polygon points="4.418 13.417 4.418 11.126 5.87 9.864 8.462 10.563 8.462 12.898 6.953 14.175 4.418 13.417" fill="none" stroke="#000" stroke-linecap="round" stroke-linejoin="round"/><polygon points="11.534 15.572 11.534 13.282 12.986 12.019 15.579 12.718 15.579 15.054 14.07 16.331 11.534 15.572" fill="none" stroke="#000" stroke-linecap="round" stroke-linejoin="round"/><polygon points="10.296 7.357 10.296 5.067 11.748 3.804 14.341 4.503 14.341 6.839 12.832 8.116 10.296 7.357" fill="none" stroke="#000" stroke-linecap="round" stroke-linejoin="round"/><polygon points="15.579 10.057 15.579 7.767 17.031 6.504 19.623 7.203 19.623 9.539 18.114 10.816 15.579 10.057" fill="none" stroke="#000" stroke-linecap="round" stroke-linejoin="round"/><path d="M18.022,10.513v1.792l-1.509,1.277-2.535-.758V10.533l.705-.613-1.761-.313a12.922,12.922,0,0,0-1.992,4.162,16.71,16.71,0,0,1-.551,1.785l1.765.475v2.336l-1.509,1.277L8.1,18.885a7.532,7.532,0,0,1-3.594,1.8L19.1,24.914a9.193,9.193,0,0,0,4.2-4.079c1.162-2.791,1.024-4.152,1.387-5.078.75-1.913,2.567-2.812,2.8-3.563Z" transform="translate(-3.681 -5.467)" fill="none" stroke="#000" stroke-linecap="round" stroke-linejoin="round"/></svg>