<svg xmlns="http://www.w3.org/2000/svg" width="26.916" height="26.916" viewBox="0 0 26.916 26.916"><rect width="26.916" height="26.916" fill="none"/><line x1="15.531" y1="25.926" x2="15.531" y2="14.674" fill="none" stroke="#000" stroke-linecap="round" stroke-linejoin="round" stroke-width="1.1"/><line x1="17.661" y1="14.525" x2="25.457" y2="7.773" fill="none" stroke="#000" stroke-linecap="round" stroke-linejoin="round" stroke-width="1.1"/><line x1="17.661" y1="25.778" x2="17.661" y2="14.525" fill="none" stroke="#000" stroke-linecap="round" stroke-linejoin="round" stroke-width="1.1"/><line x1="10.58" y1="24.497" x2="15.531" y2="25.926" fill="none" stroke="#000" stroke-linecap="round" stroke-linejoin="round" stroke-width="1.1"/><line x1="10.58" y1="17.295" x2="10.58" y2="24.497" fill="none" stroke="#000" stroke-linecap="round" stroke-linejoin="round" stroke-width="1.1"/><line x1="6.979" y1="16.256" x2="10.58" y2="17.295" fill="none" stroke="#000" stroke-linecap="round" stroke-linejoin="round" stroke-width="1.1"/><line x1="6.979" y1="23.458" x2="6.979" y2="16.256" fill="none" stroke="#000" stroke-linecap="round" stroke-linejoin="round" stroke-width="1.1"/><line x1="2.028" y1="22.028" x2="6.979" y2="23.458" fill="none" stroke="#000" stroke-linecap="round" stroke-linejoin="round" stroke-width="1.1"/><polygon points="22.079 17.451 22.079 15.2 24.158 13.4 24.158 15.65 22.079 17.451"/><polygon points="18.96 17.901 21.039 16.1 21.039 18.351 18.96 20.151 18.96 17.901"/><line x1="25.457" y1="19.026" x2="25.457" y2="7.773" fill="none" stroke="#000" stroke-linecap="round" stroke-linejoin="round" stroke-width="1.1"/><line x1="17.661" y1="25.778" x2="25.457" y2="19.026" fill="none" stroke="#000" stroke-linecap="round" stroke-linejoin="round" stroke-width="1.1"/><polyline points="2.028 22.028 2.028 10.776 15.531 14.674" fill="none" stroke="#000" stroke-linecap="round" stroke-linejoin="round" stroke-width="1.1"/><polygon points="25.007 5.331 16.62 12.595 16.594 12.595 2.028 8.39 2.028 8.363 10.439 1.079 25.007 5.284 25.007 5.331" stroke="#000" stroke-linecap="round" stroke-linejoin="round"/></svg>